<svg data-v-423bf9ae="" xmlns="http://www.w3.org/2000/svg" viewBox="0 0 288 112" class="iconLeft"><!----><!----><!----><g data-v-423bf9ae="" id="e38e21dc-f8c8-4d1e-a027-3b8d6fa47003" fill="#202A4F" transform="matrix(4.4776120677666755,0,0,4.4776120677666755,88.88642505158494,10.331166054629385)"><path d="M3.05 6.69L3.05 4.72L2.53 4.72C2.08 6.07 1.50 7.01 0.62 7.41L0.62 7.74L1.93 7.74L1.93 11.80C1.93 12.96 2.53 13.73 3.69 13.73C4.38 13.73 4.73 13.54 5.10 13.25L5.10 12.33C4.83 12.50 4.48 12.66 3.94 12.66C3.34 12.66 3.05 12.32 3.05 11.74L3.05 7.74L5.04 7.74L5.04 6.69ZM10.17 6.55C8.09 6.55 6.60 8.20 6.60 10.14C6.60 12.09 8.09 13.73 10.17 13.73C12.25 13.73 13.74 12.09 13.74 10.14C13.74 8.20 12.25 6.55 10.17 6.55ZM10.17 7.64C11.63 7.64 12.58 8.82 12.58 10.14C12.58 11.47 11.63 12.63 10.17 12.63C8.71 12.63 7.77 11.47 7.77 10.14C7.77 8.82 8.71 7.64 10.17 7.64ZM18.68 6.55C16.60 6.55 15.11 8.20 15.11 10.14C15.11 12.09 16.60 13.73 18.68 13.73C20.75 13.73 22.24 12.09 22.24 10.14C22.24 8.20 20.75 6.55 18.68 6.55ZM18.68 7.64C20.14 7.64 21.08 8.82 21.08 10.14C21.08 11.47 20.14 12.63 18.68 12.63C17.21 12.63 16.27 11.47 16.27 10.14C16.27 8.82 17.21 7.64 18.68 7.64ZM25.21 13.52L25.21 3.68L24.09 3.68L24.09 13.52ZM28.63 5.26C29.15 5.26 29.56 4.81 29.56 4.33C29.56 3.84 29.15 3.40 28.63 3.40C28.10 3.40 27.70 3.84 27.70 4.33C27.70 4.81 28.10 5.26 28.63 5.26ZM29.33 6.69L27.13 6.69L27.13 7.74L28.21 7.74L28.21 13.52L29.33 13.52ZM35.22 6.55C34.18 6.55 33.35 7.12 32.87 7.85L32.87 6.69L31.75 6.69L31.75 16.80L32.87 16.80L32.87 12.61C33.46 13.26 34.33 13.73 35.11 13.73C36.98 13.73 38.40 12.25 38.40 9.99C38.40 7.92 36.98 6.55 35.22 6.55ZM35.04 7.64C36.37 7.64 37.24 8.67 37.24 9.99C37.24 11.32 36.37 12.63 34.90 12.63C34.07 12.63 33.46 12.14 32.88 11.43L32.87 10.12C32.85 8.65 33.80 7.64 35.04 7.64ZM42.29 6.55C40.82 6.55 39.88 7.41 39.88 8.57C39.88 9.35 40.13 9.98 41.19 10.38L42.21 10.75C42.85 10.98 43.19 11.20 43.19 11.63C43.19 12.21 42.66 12.63 41.79 12.63C41.11 12.63 40.15 12.21 39.77 11.92L39.77 13.13C40.09 13.36 41.07 13.73 41.88 13.73C43.34 13.73 44.39 12.80 44.39 11.63C44.39 10.86 43.96 10.25 43.07 9.94L41.92 9.53C41.29 9.31 41.08 8.91 41.08 8.57C41.08 8.13 41.51 7.64 42.37 7.64C43.05 7.64 43.78 7.98 44.16 8.27L44.16 7.07C43.85 6.84 43.09 6.55 42.29 6.55Z"></path></g><defs data-v-423bf9ae=""><linearGradient data-v-423bf9ae="" gradientTransform="rotate(25)" id="be4d182c-e16a-409c-82a6-1a1daba6c999" x1="0%" y1="0%" x2="100%" y2="0%"><stop data-v-423bf9ae="" offset="0%" style="stop-color: rgb(57, 94, 202); stop-opacity: 1;"></stop><stop data-v-423bf9ae="" offset="100%" style="stop-color: rgb(132, 139, 216); stop-opacity: 1;"></stop></linearGradient></defs><g data-v-423bf9ae="" id="bc97903e-bc31-47c9-8471-bf36247cbe5e" transform="matrix(1.1111060248480902,0,0,1.1111060248480902,-18.748273414912134,0.4450130291101715)" stroke="none" fill="url(#be4d182c-e16a-409c-82a6-1a1daba6c999)"><path d="M50.138.287c.264-.312.731-.361 1.09-.191.447.213.796.58 1.125.942.851.974 1.541 2.075 2.217 3.175.733 1.233 1.453 2.478 2.048 3.784l.173.074c.896-1.47 1.507-3.127 2.662-4.428.481-.539 1.169-1.013 1.928-.893.539.048 1.01.433 1.213.928.354.814.337 1.73.269 2.599-.098 1.391-.433 2.748-.661 4.121 2.107-.607 4.387-.822 6.523-.245.499.177 1.22.429 1.194 1.074-.005.388-.402.53-.697.666-1.498.632-2.997 1.47-3.953 2.827-.289.415-.535.869-.618 1.374.494.018 1.021-.003 1.471.238.646.335 1.115.919 1.536 1.497.86 1.252 1.508 2.636 2.078 4.039.047.111.112.212.193.302-.484-1.56-.767-3.201-.693-4.837.046-.833.262-1.731.904-2.312.386-.378.933-.536 1.461-.561 2.062-.188 4.189.805 5.36 2.514.412.591.684 1.295.697 2.021-.01.708-.364 1.37-.817 1.896-.941 1.093-2.172 1.872-3.367 2.654l.241.306c1.46-1.009 3.131-1.911 4.956-1.868 1.084.011 2.022.798 2.447 1.759.752 1.66.706 3.543.507 5.317-.063.609-.262 1.276-.798 1.634-.589.396-1.35.347-2.008.188-1.729-.458-3.202-1.517-4.686-2.471 1.169 1.031 2.261 2.143 3.39 3.217.64.601 1.224 1.395 1.178 2.315-.043.819-.622 1.492-1.275 1.929-1.069.715-2.344 1.044-3.597 1.259-.95.108-1.933.287-2.871.015-.874 1.389-2.151 2.459-3.138 3.757.71-.044 1.422-.166 2.135-.078 1.736.134 3.34 1.032 4.554 2.251.281.238.209.679-.061.891-.322.144-.686.108-1.027.09-1.458-.097-2.948.181-4.249.855-1.021.496-1.859 1.273-2.772 1.933-1.335 1-2.74 2.024-4.401 2.386-1.244.283-2.567.005-3.653-.644-.159-.065-.352-.265-.521-.114-.56.358-1.136.728-1.58 1.227 2.2 1.317 3.972 3.384 4.792 5.825l-.039.118c-2.905 1.631-6.402 1.484-9.58.93a32.566 32.566 0 0 0-1.831 5.45c-.098.434-.271.872-.173 1.321 1.021 6.715 2.253 13.399 3.763 20.021 1.201 5.187 2.554 10.354 4.411 15.347-.868.448-1.806.765-2.737 1.059-.625-1.627-1.055-3.326-1.581-4.989-1.26-4.245-2.465-8.513-3.472-12.824.229 5.521.551 11.053 1.454 16.51.077.511.229 1.012.232 1.532-1.139-.251-2.257-.66-3.202-1.354-.352-4.55-.531-9.112-.781-13.668-.062-1.921-.169-3.84-.195-5.762 0-.156-.076-.296-.12-.44.034.461-.021.923-.069 1.383-.324 3.405-.548 6.821-.726 10.237-.017.537-.057 1.074-.027 1.612-.813-.065-1.622-.185-2.433-.259.043-2.157.26-4.312.398-6.466.377-5.039.772-10.08 1.374-15.098.02-.285-.044-.565-.094-.843-.6-3.117-1.288-6.218-2.052-9.299-.484-1.794-.898-3.617-1.523-5.363-1.347 1.132-3.122 1.68-4.868 1.674-2.031.033-4.036-.538-5.867-1.387.703-2.143 1.341-4.438 2.989-6.075-.292-.167-.577-.654-.948-.401-1.205.607-2.651.564-3.895.093-1.132-.389-2.045-1.185-3.043-1.812-1.296-.831-2.651-1.593-4.105-2.113-1.046-.354-2.162-.591-3.27-.447-.362.033-.802.115-1.082-.187-.299-.335-.203-.843.042-1.176a2.96 2.96 0 0 1 .997-.804c1.167-.622 2.495-.851 3.799-.966-.939-1.117-2.103-2.067-2.846-3.343-.226-.361-.236-.866.042-1.198.214-.275.599-.193.902-.232-.238-.918-.37-2.056.35-2.8.827-.821 1.831-1.437 2.832-2.018.235-.156.561-.231.685-.509-.676-.018-1.336.208-2.013.24-1.409.105-2.956.133-4.192-.656-.72-.45-1.049-1.283-1.197-2.082-.212-1.197-.074-2.492.578-3.538.447-.763 1.223-1.377 2.121-1.463.548-.072 1.075.167 1.53.449 1.169.728 2.131 1.731 3.104 2.689-.792-1.339-1.702-2.708-1.866-4.293-.106-.758.213-1.607.934-1.945 2.071-1.081 4.812-.254 6.179 1.575.414.535.67 1.208.592 1.892-.126 1.397-.81 2.667-1.557 3.829-.143.153-.066.361.159.315.668-1.09 1.465-2.19 2.652-2.758.695-.383 1.578-.317 2.242.098.946.573 1.575 1.536 2.079 2.496.369-.48.818-.959 1.462-1.013-.069-.469-.243-.915-.355-1.374-1.129.029-2.271-.269-3.196-.928-1.018-.687-1.799-1.673-2.375-2.745-.98-1.823-2.061-3.604-3.404-5.184-.976-1.115-2.105-2.153-3.491-2.723-.322-.141-.688-.196-.973-.412-.378-.289-.364-.923-.011-1.226.476-.444 1.161-.545 1.787-.562 1.542-.046 3.029.451 4.461.967-.389-1.479-.972-2.914-1.2-4.434-.053-.515-.132-1.159.314-1.532.425-.311.998-.105 1.351.222 1.502 1.298 2.473 3.08 3.808 4.524.04-1.537.298-3.11 1.117-4.441.666-1.129 1.62-2.081 2.703-2.813.301-.216.823-.068.865.331.043.704-.274 1.368-.335 2.066-.294 1.912.071 3.896.944 5.616.713 1.381 1.467 2.747 2.026 4.201.064.151.106.325.24.436.149-.293.305-.583.483-.859-.728-.783-1.25-1.8-1.241-2.889-.079-1.385.544-2.879 1.775-3.593.959-.558 2.139-.463 3.16-.141-.172-1.384.632-2.856 1.953-3.353.952-.374 2.008-.125 2.91.275-.012-1.443-.527-2.809-.946-4.169-.174-.582-.272-1.325.213-1.786zm.588.681c-.053.8.349 1.522.537 2.279.486 1.548.708 3.198.456 4.81-.466 2.894-1.324 5.79-1.014 8.747.163 2.183 1.139 4.327 2.84 5.736 1.054.854 2.263 1.753 3.684 1.732 1.264.003 2.322-.835 3.156-1.701.354-.319-.146-.721-.146-1.093-.186-2.235 1.373-4.361 3.421-5.16.055-.558.236-1.1.513-1.587.818-1.501 2.259-2.552 3.766-3.291.199-.116.461-.148.618-.322-.091-.161-.331-.108-.481-.173-2.022-.44-4.146-.16-6.083.521-.254.125-.624.018-.711-.267-.11-.275-.05-.573-.007-.854.272-1.676.701-3.339.707-5.046-.04-.566-.076-1.198-.521-1.612-.663-.171-1.154.393-1.534.844-.852 1.097-1.406 2.38-2.076 3.588-.21.374-.423.765-.764 1.039-.259.217-.694.244-.911-.048-.266-.36-.41-.79-.612-1.186-.848-1.65-1.761-3.272-2.805-4.81-.429-.618-.867-1.238-1.402-1.77-.18-.169-.366-.372-.631-.376zM37.452 5.856c-.912.903-1.665 2.008-1.977 3.266-.288.961-.227 1.974-.258 2.963-.022.282-.087.659-.419.728-.359.138-.696-.106-.921-.365-.767-.858-1.419-1.806-2.129-2.709-.644-.78-1.215-1.66-2.056-2.246.044 1.665.76 3.211 1.195 4.796.108.475.429 1.039.084 1.485-.259.214-.571.05-.834-.056a15.108 15.108 0 0 0-2.83-.948c-.866-.155-1.814-.367-2.654.003.256.203.582.275.868.422a9.584 9.584 0 0 1 2.355 1.663c1.928 1.845 3.317 4.159 4.584 6.485.523.951 1.221 1.829 2.127 2.441 1.008.678 2.325.93 3.49.531 1.006-.3 1.733-1.118 2.356-1.92.856-1.106 1.148-2.597.826-3.952-.475-2.166-1.646-4.082-2.621-6.045-1.038-2.102-1.292-4.539-.79-6.822-.142.08-.284.161-.396.28zm11 .92c-1.112.336-1.822 1.676-1.427 2.78.312.982 1.029 1.769 1.776 2.448.408-.1.819.05 1.224.1.233-1.323.495-2.64.758-3.958a3.13 3.13 0 0 0 .055-.88c-.734-.358-1.559-.718-2.386-.49zm-5.35 3.63c-1.371 1.086-1.474 3.352-.322 4.63.662.707 1.728.896 2.632.598-.082-1.443.631-3.047 2.059-3.568-.296-.415-.646-.793-.883-1.25-.203-.48-.77-.567-1.211-.708-.752-.175-1.641-.207-2.275.298zm4.442 2.656c-.588.281-.938.881-1.104 1.49-.226.715-.166 1.568.35 2.149.806.942 2.035 1.444 3.229 1.655-.423-1.739-.299-3.538-.14-5.301-.754-.204-1.603-.346-2.335.007zm23.577 2.419c-.424.147-.667.563-.798.967-.24.685-.184 1.42-.166 2.132.126 1.194.348 2.381.698 3.53.159.151.412.118.609.191.46.082.838.367 1.258.544 1.371-.761 2.741-1.656 3.684-2.938.488-.605.348-1.457-.021-2.084-1.02-1.781-3.252-2.814-5.264-2.342zm-28.735 2.498c-.247.687.007 1.414-.097 2.119-.155.901.196 1.897.837 2.522 1.456-.3 2.95-.167 4.401.085-.831-.339-1.455-1.004-2.032-1.667-.682-.816-1.135-1.932-.862-2.999.122-.564.536-.986.868-1.435a5.268 5.268 0 0 1-2.375-.142c-.349.444-.555.987-.74 1.517zm21.704-.81c-1.638.552-2.892 2.16-2.965 3.895-.039.616.462 1.081.924 1.403 1.13.735 2.465 1.047 3.766 1.326.635.102 1.272.267 1.919.241.241-.617.711-1.114 1.262-1.47-.302-.859-.693-1.685-1.099-2.499-.516-.96-1.043-1.954-1.877-2.679-.516-.483-1.304-.394-1.93-.217zm-18.605 1.406c-.066.736.352 1.403.801 1.948.608.649 1.268 1.401 2.21 1.5.941.127 1.838-.251 2.627-.724 0-.35-.265-.617-.397-.921-.179-.306-.251-.667-.452-.956-1.503-.361-3.057-.876-4.144-2.033-.359.287-.626.72-.645 1.186zm-20.547 2.333c-.407.126-.875.26-1.124.634-.21.695.029 1.422.295 2.069.573 1.349 1.371 2.593 2.255 3.756.546-.052 1.093 0 1.634.081.708-1.108 1.424-2.279 1.598-3.609.097-.754-.397-1.413-.931-1.884-1.005-.867-2.407-1.367-3.727-1.047zm26.399 1.331c-.916.573-2.022.846-3.097.67 1.048.249 2.246.54 2.875 1.501.646.964.521 2.2.247 3.268-.457 1.602-1.243 3.09-2.144 4.481-.18.295-.464.563-.438.938.367-.226.574-.622.869-.924.591-.705 1.281-1.312 1.985-1.897.55-2.107 1.074-4.225 1.696-6.312.206-.37-.24-.555-.453-.768-.417-.321-.735-.742-1.098-1.115-.161-.08-.3.107-.442.158zm-9.694-.046c-.416.841-1.061 1.545-1.757 2.164-.182.111-.043.325-.004.473.564 1.478 1.097 2.969 1.677 4.44.391.607.894 1.137 1.298 1.738.328.411.55.91.946 1.263-.061-.278-.193-.53-.318-.782-.743-1.533-1.459-3.079-2.175-4.625-.378-.834-.602-1.834-.229-2.708.199-.505.636-.85 1.059-1.161-.161-.269-.279-.569-.497-.802zm32.738 2.334c-.245.125-.064.41-.02.598.27.737.269 1.549.112 2.313a16.753 16.753 0 0 0 3.737 2.252c.572.238 1.198.457 1.827.34.351-.055.543-.407.61-.724.234-1.609.309-3.304-.242-4.861-.279-.8-.957-1.575-1.872-1.545-1.525.017-2.918.797-4.152 1.627zM59.7 24.409c.426 2.428-.066 5.175-1.903 6.932.248.45.503.898.695 1.375.686-.375 1.334-.825 2.049-1.147 1.052 1.709 1.126 3.792.961 5.735a9.42 9.42 0 0 0 2.223-3.25c.141-.25-.217-.333-.355-.457-1.563-.994-2.845-2.713-2.753-4.638.002-1.168.694-2.395 1.853-2.753 1.619-.531 3.313-.801 5.003-.995-.012-.06-.034-.178-.047-.238-2.144-.279-4.376-.671-6.193-1.92-.497.468-.968.966-1.533 1.356zm10.041-1.178c-.7.295-1.214.964-1.331 1.714-.296 1.661.9 3.427 2.537 3.811.48.068.997.075 1.445-.138.762-.35 1.259-1.173 1.271-2.005.079-1.15-.536-2.282-1.447-2.959-.701-.501-1.649-.738-2.475-.423zm-27.734 1.157c-.398.68-.113 1.497.182 2.16.814 1.729 1.588 3.481 2.467 5.179 1.147-.44 2.402-.103 3.402.531.97-1.504 1.908-3.062 2.4-4.796.205-.801.352-1.709-.07-2.467-.259-.497-.813-.712-1.311-.89-1.517-.497-3.115-.819-4.718-.721-.851.075-1.829.25-2.352 1.004zm12.205-.128c-.46 1.759-.996 3.498-1.397 5.273.244-.079.483-.165.724-.249.365-1.562.896-3.075 1.35-4.61-.126-.24-.436-.322-.677-.414zm-35.336.942c-.841 1.133-.883 2.717-.343 3.989.334.672 1.114.941 1.806 1.062 1.392.202 2.805.028 4.174-.242-.043-.609.177-1.175.395-1.729-1.108-1.22-2.229-2.456-3.585-3.408-.324-.207-.66-.438-1.053-.473-.579-.035-1.055.377-1.394.801zm19.267.062c.091.432.226.854.343 1.278.06.149.066.367.246.432.423.208.816.465 1.205.729-.311-.913-.674-1.809-1.001-2.716a10.79 10.79 0 0 1-.793.277zm17.612-.254a.184.184 0 0 0 .256.25c.216-.154-.102-.398-.256-.25zm-.707 2.448c-.238.516-.339 1.089-.458 1.643 1.06.033 2.002.642 2.646 1.454 1.47-1.431 1.859-3.638 1.608-5.606-1.535.275-2.898 1.253-3.796 2.509zm-23.38-1.09a6.32 6.32 0 0 0-1.811 2.305c.607.705 1.086 1.523 1.261 2.448.678.278 1.382.48 2.089.671.411.087.827.241 1.255.18.152-1.111.717-2.104 1.073-3.146-.46-1.029-1.057-2.086-2.028-2.71-.58-.391-1.337-.151-1.839.252zm30.946.786c-1.112.506-1.271 1.983-.915 3.022.464 1.336 1.562 2.378 2.809 3.001.664.34 1.514.244 2.064-.269 1.181-1.026 1.758-2.55 2.22-4.004.155-.299-.152-.487-.315-.688-.523-.584-.799-1.335-.992-2.083-1.644.213-3.307.452-4.871 1.021zm-25.121.617c-.446.181-.645.661-.867 1.053-.83 1.62-1.565 3.392-1.472 5.246.025.896.5 1.835 1.379 2.156 1.795.693 3.78.368 5.592-.086-.048-1.042.175-2.111.752-2.99.229-.253-.054-.516-.183-.735-1.003-1.453-2.045-2.924-3.439-4.029-.502-.37-1.103-.795-1.762-.615zm-11.076.555c-.774.227-1.101 1.128-.967 1.867.233 1.371 1.296 2.581 2.627 2.986.556.116 1.237.143 1.671-.289.5-.448.546-1.188.414-1.807a4 4 0 0 0-2.098-2.562 2.386 2.386 0 0 0-1.647-.195zm45.608 1.353c-.462.047-.93.022-1.389-.032-.382 1.439-.591 2.943-.49 4.434.079.663.206 1.382.691 1.879.302.325.769.411 1.193.407 1.465-.05 2.947-.296 4.282-.923.524-.264 1.056-.613 1.347-1.139.316-.62-.102-1.291-.524-1.738-1.052-1.07-2.167-2.074-3.232-3.129-.152-.123-.278-.315-.481-.349-.443.244-.883.528-1.397.59zm-2.399-.368a11.109 11.109 0 0 1-1.421 3.156c-.485.708-1.105 1.39-1.939 1.67a17.358 17.358 0 0 1-.235 3.211c1.198-.475 2.28-1.228 3.516-1.628-.639-2.11-.305-4.367.222-6.463l-.143.054zm-15.862.88c-1.401.479-2.476 1.569-3.447 2.64-.285.367-.644.696-.843 1.118.104.441.307.854.382 1.304.166.69.055 1.399.06 2.098 1.733.358 3.463.804 5.239.887.551.082 1.141-.021 1.592-.36.762-.564 1.172-1.5 1.255-2.427.137-1.721-.666-3.39-1.795-4.644-.595-.687-1.595-.922-2.443-.616zm-28.849 1.882c-1.013.569-2.016 1.176-2.891 1.947-.538.465-.473 1.281-.263 1.893.521 1.538 1.972 2.578 3.487 3.005.454.133 1.021.213 1.397-.141.53-.483.639-1.245.687-1.924.021-.963.029-1.938-.17-2.887-.008-.189-.201-.257-.333-.344a4.57 4.57 0 0 1-1.504-1.407c-.067-.163-.256-.264-.41-.142zm7.145.348c.69.417 1.413.81 2.164 1.107.004-.188.013-.375.026-.562-.739-.143-1.474-.307-2.19-.545zm13.18.08c-1.163.284-1.967 1.394-2.133 2.542-.317 1.721.596 3.706 2.275 4.349 1.082.433 2.392-.034 3.02-.996 1.039-1.5.779-3.686-.481-4.979-.669-.717-1.701-1.156-2.681-.916zm13.601 1.17c.001.762.199 1.554.015 2.323-.217 1.27-1.001 2.525-2.24 3.006-.775.316-1.621.129-2.43.109-.488.484-1.022.926-1.461 1.458.992.778 2.014 1.578 2.664 2.679.247.367.318.813.525 1.2-.037-1.59.999-2.99 2.157-3.985.751-.631 1.55-1.219 2.231-1.926.463-1.853.54-3.896-.173-5.698-.444.253-.886.516-1.288.834zm-28-.702c-.367.663-1.053 1.129-1.814 1.182.108.803.367 1.579.599 2.354.397 1.077.802 2.222 1.663 3.023.404.408 1.041.418 1.525.152 1.247-.579 2.545-1.375 3.109-2.691-.661-.402-1.231-.995-1.458-1.749-.104-.211-.077-.523-.315-.641-.844-.458-1.703-.885-2.558-1.321-.243-.119-.472-.295-.751-.309zm33.789 1.296c-.875 2.366-2.748 4.167-4.604 5.796-.887.764-1.896 1.429-2.539 2.433-.72 1.039-.956 2.458-.392 3.617.452.994 1.444 1.584 2.405 2.008 1.03.457 2.235.372 3.25-.09 1.62-.717 2.995-1.86 4.392-2.929 1.655-1.331 3.771-2.011 5.888-2.003l-.156-.183a5.999 5.999 0 0 0-4.038-1.179c-.688.015-1.358.315-2.049.231-.485-.104-.511-.728-.229-1.049 1.078-1.444 2.485-2.619 3.502-4.112l.056-.25c-1.604.417-2.958 1.443-4.478 2.066-.412.202-.858-.253-.707-.666.272-1.2.496-2.431.385-3.667-.228-.019-.458-.046-.686-.023zm-36.4 2.179c.051.963-.124 1.995-.723 2.777-.491.625-1.352.834-2.11.672-1.403-.309-2.743-1.032-3.653-2.16-.208-.307-.588-.373-.919-.465a.924.924 0 0 0 .217.467c.872 1.147 1.954 2.109 2.903 3.188.201.224.339.567.158.847-.397.267-.895.183-1.345.232-1.021.094-2.045.286-2.992.69-.291.137-.616.266-.795.551.697.04 1.407-.036 2.093.125 2.583.508 4.858 1.93 6.998 3.398.996.718 2.179 1.301 3.437 1.25.755-.01 1.496-.309 2.075-.789.898-.733 1.211-1.938 1.339-3.042.151-1.422-.661-2.72-1.642-3.672-.681.256-1.48.417-2.144.018-1.058-.647-1.631-1.821-2.07-2.936-.158-.442-.377-.94-.827-1.151zm8.625.866c-.335.586-.682 1.179-1.194 1.632-.445.468-1.029.758-1.518 1.169.96.911 1.65 2.175 1.699 3.515.066 1.047-.256 2.057-.612 3.026.263.353.698.642 1.097.844.56-.234 1.098-.526 1.675-.717-.268-.448-.73-.746-.998-1.201-.914-1.269-1.441-2.904-1.092-4.461.253-1.009 1.128-1.695 2.025-2.121 1.427-.692 2.99-1.029 4.539-1.32-.062-.201-.123-.401-.192-.599-1.768.403-3.639.695-5.429.233zm12.649.933c-.089.195-.028.412.196.466.768.386 1.483.863 2.227 1.29.3-.398.751-.662 1.026-1.077-1.161-.172-2.291-.523-3.449-.679zM38.27 39.886c-.632.333-1.338.783-1.475 1.544a4.586 4.586 0 0 0 .027 1.585c.491 1.979 2.066 3.656 4.021 4.245.438.112.931.25 1.352.004.831-.438 1.229-1.367 1.554-2.2.573-1.578.81-3.253.974-4.917a5.589 5.589 0 0 1-1.751-1.58c-1.614.222-3.243.579-4.702 1.319zm10.546-.554c-.423.462-.964.829-1.576.982-.162.062-.371.039-.497.173.01.771.009 1.545.103 2.313.127 1.547.283 3.141.972 4.557.28.61.93.943 1.564 1.058 2.251.428 4.664-.988 5.513-3.094.275-.85-.303-1.661-.816-2.287-1.062-1.228-2.447-2.123-3.829-2.952-.471-.261-.924-.568-1.434-.75zm-3.202 1.098c-.033.927-.315 1.837-.223 2.77.429 6.102.902 12.208 1.789 18.265.094-.457.259-.905.266-1.373-.336-4.123-.462-8.263-.545-12.397-.915-2.277-1.031-4.776-1.078-7.204a56.395 56.395 0 0 1-.209-.061zm7.866 8.027c.141.026.335.21.458.051.718-.721 1.504-1.368 2.313-1.983a3.433 3.433 0 0 1-.329-1.249c-.439 1.3-1.339 2.384-2.442 3.181zm-9.426-1.817a3.713 3.713 0 0 1-1.611 1.561c1.535 3.004 2.463 6.279 3.272 9.535a348.41 348.41 0 0 1-1.101-12.197c-.245.333-.331.755-.56 1.101zm6.804 7.633c-1.862 3.497-3.003 7.357-3.509 11.278-.264 1.255-.443 2.525-.609 3.797-.604 4.688-.979 9.4-1.358 14.11-.153 2.492-.405 4.981-.479 7.479.178-.006.355 0 .534.017.293-6.481.888-12.944 1.677-19.383.476-3.416.817-6.864 1.68-10.213.644-2.563 1.586-5.062 2.878-7.371 1.361-2.425 3.169-4.641 5.474-6.224a38.413 38.413 0 0 0-.353-.429c-2.553 1.733-4.468 4.257-5.935 6.939zm-16.472-6.508c.288.212.659.706.999.291a6.423 6.423 0 0 0-.724-.561l-.275.27zm.492 1.878c-1.064 1.038-1.618 2.452-2.107 3.824-.111.338-.275.67-.278 1.032 1.714.604 3.529 1.098 5.362.898 1.437-.121 2.837-.706 3.887-1.701a33.852 33.852 0 0 0-2.305-5.834c-.116-.281-.431-.548-.74-.363-1.371.508-2.741 1.133-3.819 2.144zm5.773-1.455c1.501 3.27 2.527 6.73 3.452 10.197.74 2.854 1.432 5.725 1.97 8.623.256-.475.222-1.04.119-1.553a87.664 87.664 0 0 0-1.111-6.211c-.82-3.642-1.801-7.29-3.486-10.639-.125-.408-.616-.317-.944-.417zm7.235.665c-.024 1.932.124 3.858.133 5.791.451.197.922.366 1.412.44a23.406 23.406 0 0 1 3.459-5.425c.088-.102.154-.216.199-.343-.452-.131-.929-.314-1.391-.119a4.96 4.96 0 0 1-3.812-.344zm7.567 1.536c-1.206 1.241-2.208 2.669-3.052 4.177-.208.377-.437.747-.558 1.162 2.609.392 5.385.562 7.873-.486.242-.048.077-.305.023-.435-.911-1.868-2.408-3.508-4.286-4.418zm-7.33 5.292c.017.685.05 1.371.098 2.057.169-.089.173-.304.248-.455.141-.45.392-.862.48-1.327-.275-.096-.553-.183-.826-.275zm.711 9.986c-.101 1.409-.577 2.806-.362 4.229.285 2.759.802 5.486 1.382 8.195 1.131 5.266 2.553 10.465 4.066 15.631.456 1.611 1.002 3.195 1.436 4.81.368.028.691-.184 1.029-.296-.176-.697-.472-1.358-.677-2.048-1.052-3.16-1.919-6.379-2.725-9.609-1.564-6.392-2.825-12.853-3.891-19.345-.082-.522-.203-1.041-.213-1.571l-.045.004zm-.714 8.575c.08 7.955.588 15.896 1.022 23.837.362.245.758.438 1.169.592-1.066-6.907-1.429-13.905-1.543-20.886-.084-1.198-.482-2.349-.581-3.544l-.067.001z"></path></g><!----></svg>